<?xml version="1.0" encoding="utf-8"?>
<!-- Generator: Adobe Illustrator 19.0.1, SVG Export Plug-In . SVG Version: 6.00 Build 0)  -->
<svg version="1.1" id="Слой_1" xmlns="http://www.w3.org/2000/svg" xmlns:xlink="http://www.w3.org/1999/xlink" x="0px" y="0px"
	 viewBox="100.2 301.1 394 144.1" style="enable-background:new 100.2 301.1 394 144.1;" xml:space="preserve">
<style type="text/css">
	.st0{display:none;}
	.st1{display:inline;fill:#2C398A;}
	.st2{display:inline;fill:#2D8DCA;}
	.st3{display:inline;fill:#65CCF1;}
	.st4{fill:#27A7F0;}
	.st5{fill:#64BB2E;}
	.st6{fill:#2A292C;}
</style>
<g class="st0">
	<path class="st1" d="M300,151.9c-0.7,1.3,0.4,1.8,1.1,2.4c15.1,15.2,30.3,30.3,45.4,45.5c17,17,34,33.9,51,50.9
		c17.9,17.9,35.7,35.8,53.6,53.8c17.5,17.6,35.1,35.1,52.6,52.7c3.2,3.2,2.9,2.7-0.1,5.7c-5.3,5.3-10.8,10.5-15.8,16
		c-2.3,2.4-3.3,1.9-5.4-0.2c-17.1-17.3-34.4-34.4-51.6-51.6c-17.8-17.8-35.7-35.6-53.4-53.5c-13.8-14-27.6-27.9-41.6-41.7
		c-12.4-12.1-24.3-24.6-37.3-37C236.2,256.8,174,318.9,111.5,381.3c-6.4-6.5-12.5-12.9-18.9-19.1c-1.9-1.9-1.8-3,0.1-4.8
		c9.7-9.6,19.4-19.3,29-28.9c45-45,89.9-90,134.9-135.1c7.9-7.9,15.6-16,23.7-23.6c6.1-5.8,11.7-12,17.6-17.9
		C298.7,151.9,299.3,151.9,300,151.9z"/>
	<path class="st2" d="M285.5,448.4c-0.2,0.2-0.3,0.3-0.5,0.5c-2.9,0-1.7-3.6-3.8-4.3c-2.4-0.8-2.2-2.8-2.2-4.8c4.5,0,9-0.1,13.5,0
		c7.6,0,6.5-0.7,6.5,6.7c0,3,0.7,6.1-0.5,8.9c-2.4,5.4-1.8,8.2,2.5,11.4c2,1.5,4.1,1.7,5.8,0.1c1.4-1.4,4.8-2.6,1.7-5.8
		c-1.2-1.3-0.7-3.3,1.9-3.3c1.7,0,3.3-0.1,5,0c3.1,0.2,4.8-1.3,5.7-4.2c0.7-2.2,1.8-4.3,3-7c1.4,2.1,0.9,3.9,0.9,5.6
		c0.2,3.6,0.2,3.7,4.2,3.7c3.8,0,3.8,0,3.9-3.9c0.1-4,0.1-8,0.1-12c2.3,0,4.5,0,6.8-0.1c0,3.5,0.2,7,0,10.5
		c-0.1,2.1,0.7,3.8,1.6,5.6c1.1,2.2,2.7,2.2,4.5,1.2c1.9-1.1,3.3-2.5,3-5.1c-0.3-3-0.1-6-0.1-9c0-1-0.5-2.3,1.2-3
		c1.2,1.7,0.5,3.5,0.7,5.2c0.2,1.5-0.2,2.9,0.5,4.4c3.1,6.9,9.4,9.2,15.5,7.9c2.1-0.5,6.2-0.5,6.1-4.7c0.8-0.3,1.5-0.8,1.8-1.6
		c1.9-4.8,1.7-9.9,0.8-14.7c-0.5-2.7-1.5-6.2-4-7.6c-3.3-1.8-3.6-4.1-3.6-7.3c0-43.2,0-86.3-0.1-129.5c0-1.7,0.7-3.7-0.7-5.2
		c0.8,0-1.5-3.1,1.4-1.3c1.2,0.7,2.1,1.6,3,2.5c8.5,8.5,17,16.9,25.5,25.4c15.9,15.8,31.8,31.6,47.6,47.4c9.7,9.7,19.3,19.5,29,29.1
		c1.1,1.1,1.2,1.9,0.2,2.9c-1.6,1.7-3.3,3.3-4.9,4.9c-4.4,4.4-8.7,8.7-13,13.1c-1.5,1.5-2.7,2.1-4.5,0.2c-9.5-9.8-19-19.5-28.7-29.1
		c-7.6-7.6-15.2-15-22.8-22.6c-0.9-1.1-2-3.2-2.7,0c-0.3,1.3-0.1,2.7-0.1,4c0,15.3-0.1,30.6,0,45.9c0,4.8-0.4,9.6,0.3,14.4
		c0,2.3,0,4.6-0.1,6.9c-0.3,2,1,3.6,1.1,5.5c-0.5,3.5-0.4,6.9-0.3,10.4c-0.6,1.7,0.8,3.8-1.2,5.2c-2.2-1.3-3-3.2-2.9-5.8
		c0.1-4.3-0.1-8.6,1.3-12.7c0.3-1,1.3-1.8,0.1-3.2c-3.1,5.6-4.9,11.3-4.4,17.6l0,0c-1.5-0.4-1.9,1.7-3.3,1.6c-1-4.7-0.9-10,0.3-14.4
		c0.1-0.5,0.4-0.9-0.2-1c-0.4-0.1-1.1,0.1-1.4,0.4c-0.3,0.3-0.4,0.9-0.4,1.4c0,4.3,0,8.6,0,13c0,1.8,0.8,2.8,2.6,3.1
		c0.9,0.1,1.5,0.7,1.4,1.7c-0.1,1.3-1.2,1.4-2.2,1.5c-3.3,0.3-4.9-0.7-6-3.8c-0.6-1.7-0.9-3.5-0.9-5.3c0.1-3.2,0-6.3,0-9.5
		c0-0.9,0.3-2.2-1.4-1.9c-0.9,1-0.5,2.2-0.5,3.3c0,4.2-0.3,8.3,0.1,12.5c0.3,4.3,4.7,7.3,9,7.9c3.8,0.5,6.1-1.6,8.9-3.2
		c0,0.4,0.1,0.7,0.1,1.1c-0.3,3.3-0.4,6.6,0.1,9.9c-0.1,0.7-0.1,1.4-0.2,2c-27,0-53.9,0-80.9,0.1c-1.7,0-3.7-0.8-5.2,0.8
		c-36.5,0-73,0.1-109.5,0.1c-0.5,0-1-0.1-1.5-0.2c0-11,0-21.9,0-32.9c0.3,0,0.7,0,1,0c0,4.1,0.1,8.3,0,12.4
		c-0.1,2.3,0.5,4.3,1.7,6.1c2.5,3.6,6.3,3.8,10.2,3.6c3.9-0.2,1.5-3.7,2.8-5.3c0.3-0.4,0.5-0.8,0.8-1.2c2.1,4.4,4.9,6.8,10.3,6.7
		c13.8-0.4,27.6-0.1,41.5-0.1c2,0,4,0.3,5.6-1.3c0.9-0.9,2-0.8,3.1,0.2c2.6,2.3,5.7,0.8,8.6,1c0.7,0.1,1.3-0.5,1.3-1.2
		c0.2-2.7,0.9-5.6-1.9-7.6"/>
	<path class="st2" d="M197,359.8c-16.7,16.7-33.5,33.3-50.2,50c-0.9,0.9-1.9,1.8-3.1,2.9c-3.2-2.2-5.5-5.2-8.2-7.8
		c-3.9-3.7-7.5-7.6-11.4-11.2c-1.8-1.7-1.6-2.7,0.1-4.4c13.8-13.8,27.4-27.6,41.2-41.4c15.8-15.8,31.5-31.5,47.4-47.1
		c5.1-5,9.6-10.5,15.2-15.1c0.5,0.4,1,0.8,1.5,1.2c0,0.6,0.1,1.3,0.1,1.9c0,0.4,0,0.8-0.1,1.2c0,0.6-0.1,1.2-0.1,1.8
		c-0.1,1.3-0.3,2.6-0.3,3.9c0,42.7-0.1,85.4-0.1,128.1c0,1-0.1,2-0.1,3c-1.8-0.1-3.7,0.2-5.4-0.3c-2.2-0.7-3.6-0.2-4.4,1.8
		c-0.9,2.2-2.2,1.9-3.4,0.7c-1.9-1.9-4.4-2.7-5.9-5.5c-2-3.9-6.7-3.7-9.8-0.1c0-4.3-0.1-8.3,0-12.3c0.3-17.1-0.6-34.2,0.5-51.4
		c0.1-1.1-0.3-2.3-1.1-2.5C197.7,357,197.2,358.3,197,359.8z"/>
	<path class="st3" d="M215.1,483.8c13.6,0,26.4,0,39.2,0c2.5,0,4.4,1.3,6.1,3c4,4,7.9,8,11.9,12c5.9,5.8,11.8,11.6,17.6,17.5
		c2.8,2.8,5.4,5.8,8.4,9c7-6.9,13.5-13.4,19.9-19.8c6.4-6.3,12.7-12.7,19-19.1c1.3-1.3,2.4-2.6,4.6-2.6c13.5,0.1,27,0,41.6,0
		c-4.3,4.3-7.8,7.9-11.4,11.5c-8.6,8.6-17.1,17.1-25.7,25.7c-9.4,9.4-18.8,18.9-28.3,28.2c-5.7,5.7-11.7,11.2-17.3,17
		c-1.8,1.8-2.9,1.7-4.4,0c-16.8-18.5-35.1-35.3-52.4-53.2c-2.5-2.6-6.3-4.3-7.1-8.4c-2.9-0.3-4-3-5.9-4.5c-2.3-1.8-4.2-4.2-6.4-6.3
		C221.2,490.9,217.5,488.5,215.1,483.8z"/>
</g>
<g>
	<path class="st4" d="M133.3,431.1c-1.3,7-5.6,11.5-12.3,13.5c-3.7,1.1-7.5,0.8-11.1-1c-0.3-0.2-0.7-0.3-1-0.4l0,0
		c-0.2-0.3-0.6-0.3-0.9-0.5c-0.2-0.3-0.4-0.5-0.7-0.5c-5-3.8-7.1-8.8-7.1-15c0-36.3,0-72.7,0-109c0-7.5,4.4-13.7,11.4-16.2
		c6.3-2.2,13.9,0.1,18,5.3c2.7,3.3,3.8,7,3.8,11.2c-0.1,6.7,0,13.4,0,20.1c0,0.4,0,0.8,0,1.4c2-0.6,3.8-1.5,5.7-2.1
		c10-3,20-2.8,29.8,0.8c8.7,3.2,15.8,8.6,21.2,16.1c4.2,5.7,2.9,14.2-2.7,18.3c-5.9,4.4-14,3.5-18.6-2.2c-2.2-2.8-4.8-5.1-8.1-6.6
		c-8.8-4-20-0.4-24.7,8c-1.8,3.2-2.6,6.6-2.6,10.2c0,15.2,0,30.4,0,45.5c0,0.9,0,1.7,0,2.6C133.2,430.6,133.2,430.8,133.3,431.1z"/>
</g>
<g>
	<path class="st5" d="M200.6,315.2c1.3-7,5.6-11.5,12.3-13.5c3.7-1.1,7.5-0.8,11.1,1c0.3,0.2,0.7,0.3,1,0.4l0,0
		c0.2,0.3,0.6,0.3,0.9,0.5c0.2,0.3,0.4,0.5,0.7,0.5c5,3.8,7.1,8.8,7.1,15c0,36.3,0,72.7,0,109c0,7.5-4.4,13.7-11.4,16.2
		c-6.3,2.2-13.9-0.1-18-5.3c-2.7-3.3-3.8-7-3.8-11.2c0.1-6.7,0-13.4,0-20.1c0-0.4,0-0.8,0-1.4c-2,0.6-3.8,1.5-5.7,2.1
		c-10,3-20,2.8-29.8-0.8c-8.7-3.2-15.8-8.6-21.2-16.1c-4.2-5.7-2.9-14.2,2.7-18.3c5.9-4.4,14-3.5,18.6,2.2c2.2,2.8,4.8,5.1,8.1,6.6
		c8.8,4,20,0.4,24.7-8c1.8-3.2,2.6-6.6,2.6-10.2c0-15.2,0-30.4,0-45.5c0-0.9,0-1.7,0-2.6C200.6,315.6,200.6,315.4,200.6,315.2z"/>
</g>
<g>
	<path class="st6" d="M290.1,329.9c0.2,0.2,0.4,0.6,0.4,0.9v40.5c0,0.4-0.2,0.7-0.4,0.9c-0.3,0.2-0.5,0.4-0.9,0.4
		c-0.4,0-0.7-0.1-1-0.4c-0.2-0.2-0.3-0.6-0.3-0.9v-19.6H261v19.6c0,0.4-0.2,0.7-0.4,0.9s-0.5,0.4-0.9,0.4c-0.4,0-0.7-0.1-1-0.4
		s-0.3-0.6-0.3-0.9v-40.5c0-0.4,0.1-0.7,0.4-0.9c0.2-0.2,0.6-0.4,0.9-0.4c0.4,0,0.7,0.1,0.9,0.4s0.4,0.6,0.4,0.9v18.4h26.8v-18.4
		c0-0.4,0.1-0.7,0.4-0.9c0.2-0.2,0.6-0.4,0.9-0.4C289.5,329.5,289.8,329.6,290.1,329.9z"/>
	<path class="st6" d="M338.1,362.5c-1.7,3.4-4.2,6-7.3,7.8c-3.1,1.9-6.7,2.8-10.6,2.8c-4,0-7.5-0.9-10.6-2.8
		c-3.1-1.9-5.5-4.5-7.3-7.8c-1.7-3.4-2.6-7.2-2.6-11.5c0-4.3,0.9-8.1,2.6-11.5c1.7-3.4,4.2-6,7.3-7.8c3.1-1.9,6.7-2.8,10.6-2.8
		c4,0,7.5,0.9,10.6,2.8c3.1,1.9,5.5,4.5,7.3,7.8c1.7,3.4,2.6,7.2,2.6,11.5C340.7,355.3,339.9,359.2,338.1,362.5z M335.9,340.8
		c-1.5-3-3.6-5.3-6.4-6.9c-2.7-1.6-5.8-2.5-9.3-2.5c-3.5,0-6.6,0.8-9.3,2.5c-2.7,1.6-4.9,4-6.4,6.9s-2.3,6.4-2.3,10.3
		s0.8,7.3,2.3,10.3c1.5,3,3.6,5.3,6.4,7c2.7,1.6,5.8,2.5,9.3,2.5c3.5,0,6.6-0.8,9.3-2.5c2.7-1.6,4.9-4,6.4-7c1.5-3,2.3-6.4,2.3-10.3
		S337.4,343.7,335.9,340.8z"/>
	<path class="st6" d="M381.3,329.9c0.2,0.2,0.3,0.5,0.3,0.9v26.6c0,2.9-0.7,5.5-2.2,7.9c-1.4,2.4-3.4,4.3-5.8,5.8
		c-2.4,1.4-5,2.2-7.9,2.2c-2.9,0-5.5-0.7-7.9-2.2c-2.4-1.4-4.3-3.4-5.8-5.8c-1.4-2.4-2.2-5.1-2.2-7.9v-26.6c0-0.4,0.1-0.7,0.4-0.9
		c0.2-0.2,0.6-0.3,0.9-0.3c0.4,0,0.7,0.1,0.9,0.4s0.4,0.5,0.4,0.9v26.6c0,2.4,0.6,4.7,1.8,6.7c1.2,2.1,2.8,3.7,4.8,4.9
		c2,1.2,4.3,1.8,6.7,1.8s4.6-0.6,6.7-1.8c2-1.2,3.6-2.8,4.9-4.9s1.8-4.3,1.8-6.7v-26.6c0-0.3,0.1-0.6,0.3-0.9s0.5-0.4,0.9-0.4
		C380.8,329.5,381.1,329.6,381.3,329.9z"/>
	<path class="st6" d="M396.4,371.6c-2.3-1-4.5-2.7-6.7-4.9c-0.2-0.3-0.4-0.6-0.4-0.9c0-0.3,0.1-0.6,0.4-1c0.3-0.3,0.6-0.5,0.9-0.5
		c0.4,0,0.7,0.2,1,0.6c1.6,1.9,3.5,3.3,5.7,4.3c2.2,1,4.5,1.5,6.9,1.5c3.2,0,5.8-0.8,7.8-2.3c2-1.5,3.1-3.5,3.1-6
		c0-2-0.6-3.6-1.6-4.9s-2.3-2.3-3.8-3c-1.5-0.8-3.5-1.6-6.1-2.5c-2.8-1.1-5-2-6.6-2.8c-1.6-0.8-2.9-2-4.1-3.5
		c-1.1-1.5-1.7-3.5-1.7-6c0-2,0.6-3.8,1.7-5.5c1.1-1.6,2.7-2.9,4.7-3.9c2-0.9,4.4-1.4,7.1-1.4c2.4,0,4.7,0.4,6.9,1.3
		c2.2,0.9,3.9,2.1,5.2,3.7c0.4,0.6,0.6,1,0.6,1.3c0,0.3-0.1,0.6-0.5,0.9c-0.3,0.3-0.6,0.4-1,0.4c-0.3,0-0.6-0.1-0.8-0.4
		c-1.2-1.5-2.6-2.6-4.4-3.5c-1.8-0.9-3.8-1.3-6-1.3c-3.1,0-5.7,0.7-7.8,2.2c-2.1,1.5-3.1,3.5-3.1,6c0,1.8,0.5,3.3,1.5,4.5
		c1,1.2,2.3,2.2,3.8,3c1.5,0.8,3.4,1.5,5.7,2.4c2.9,1,5.1,2,6.8,2.8s3.1,2.1,4.3,3.8c1.2,1.6,1.8,3.8,1.8,6.5c0,1.9-0.6,3.6-1.7,5.3
		s-2.7,2.9-4.8,3.9c-2.1,1-4.4,1.4-7.1,1.4C401.3,373.2,398.7,372.6,396.4,371.6z"/>
	<path class="st6" d="M452.5,370.5c0.2,0.2,0.4,0.5,0.4,0.9c0,0.4-0.1,0.7-0.4,0.9c-0.2,0.2-0.5,0.3-0.9,0.3h-23.2
		c-0.3,0-0.6-0.1-0.9-0.4c-0.3-0.2-0.4-0.5-0.4-0.9v-40.6c0-0.3,0.1-0.6,0.4-0.9c0.2-0.2,0.5-0.4,0.9-0.4h23.2
		c0.3,0,0.6,0.1,0.9,0.4s0.4,0.5,0.4,0.9c0,0.4-0.1,0.7-0.4,0.9c-0.2,0.2-0.5,0.3-0.9,0.3h-21.8v17.2h19.1c0.3,0,0.6,0.1,0.9,0.4
		s0.4,0.5,0.4,0.9c0,0.4-0.1,0.7-0.4,0.9s-0.5,0.3-0.9,0.3h-19.1v18.5h21.8C451.9,370.1,452.2,370.2,452.5,370.5z"/>
</g>
<g>
	<path class="st6" d="M290.1,383.7c0.2,0.2,0.4,0.6,0.4,0.9v40.5c0,0.4-0.2,0.7-0.4,0.9c-0.3,0.2-0.5,0.4-0.9,0.4
		c-0.4,0-0.7-0.1-1-0.4c-0.2-0.2-0.3-0.6-0.3-0.9v-19.6H261v19.6c0,0.4-0.2,0.7-0.4,0.9s-0.5,0.4-0.9,0.4c-0.4,0-0.7-0.1-1-0.4
		s-0.3-0.6-0.3-0.9v-40.5c0-0.4,0.1-0.7,0.4-0.9c0.2-0.2,0.6-0.4,0.9-0.4c0.4,0,0.7,0.1,0.9,0.4s0.4,0.6,0.4,0.9V403h26.8v-18.4
		c0-0.4,0.1-0.7,0.4-0.9c0.2-0.2,0.6-0.4,0.9-0.4C289.5,383.3,289.8,383.4,290.1,383.7z"/>
	<path class="st6" d="M334.1,383.7c0.2,0.2,0.3,0.5,0.3,0.9v26.6c0,2.9-0.7,5.5-2.2,7.9c-1.4,2.4-3.4,4.3-5.8,5.8s-5,2.2-7.9,2.2
		c-2.9,0-5.5-0.7-7.9-2.2c-2.4-1.4-4.3-3.4-5.8-5.8c-1.4-2.4-2.2-5.1-2.2-7.9v-26.6c0-0.4,0.1-0.7,0.4-0.9c0.2-0.2,0.6-0.3,0.9-0.3
		s0.7,0.1,0.9,0.4s0.4,0.5,0.4,0.9v26.6c0,2.4,0.6,4.7,1.8,6.7c1.2,2.1,2.8,3.7,4.8,4.9c2,1.2,4.3,1.8,6.7,1.8s4.6-0.6,6.7-1.8
		c2-1.2,3.6-2.8,4.9-4.9s1.8-4.3,1.8-6.7v-26.6c0-0.3,0.1-0.6,0.3-0.9s0.5-0.4,0.9-0.4C333.5,383.3,333.8,383.4,334.1,383.7z"/>
	<path class="st6" d="M378.7,383.7c0.2,0.2,0.3,0.5,0.3,0.8V425c0,0.5-0.1,0.8-0.4,1c-0.2,0.2-0.6,0.3-0.9,0.3c-0.4,0-0.7-0.2-1-0.5
		l-27.7-37.8v37.3c0,0.3-0.1,0.5-0.3,0.7s-0.5,0.3-0.8,0.3c-0.4,0-0.7-0.1-0.9-0.3s-0.3-0.5-0.3-0.7v-40.8c0-0.4,0.1-0.7,0.3-0.9
		s0.5-0.3,0.8-0.3c0.4,0,0.7,0.1,0.9,0.4l27.9,38.1v-37.3c0-0.3,0.1-0.6,0.3-0.8s0.5-0.3,0.8-0.3
		C378.2,383.3,378.5,383.4,378.7,383.7z"/>
	<path class="st6" d="M419.3,383.7c0.2,0.2,0.4,0.5,0.4,0.8c0,0.4-0.1,0.7-0.3,0.9s-0.5,0.3-0.9,0.3h-13.7v39.5
		c0,0.3-0.1,0.6-0.4,0.9s-0.5,0.4-0.9,0.4c-0.4,0-0.7-0.1-0.9-0.4c-0.2-0.2-0.3-0.5-0.3-0.9v-39.5h-13.7c-0.3,0-0.6-0.1-0.9-0.3
		s-0.4-0.5-0.4-0.8s0.1-0.6,0.4-0.8s0.5-0.3,0.9-0.3h29.9C418.8,383.3,419.1,383.4,419.3,383.7z"/>
	<path class="st6" d="M453.3,424.3c0.2,0.2,0.4,0.5,0.4,0.9c0,0.4-0.1,0.7-0.4,0.9c-0.2,0.2-0.5,0.3-0.9,0.3h-23.2
		c-0.3,0-0.6-0.1-0.9-0.4c-0.3-0.2-0.4-0.5-0.4-0.9v-40.6c0-0.3,0.1-0.6,0.4-0.9c0.2-0.2,0.5-0.4,0.9-0.4h23.2
		c0.3,0,0.6,0.1,0.9,0.4s0.4,0.5,0.4,0.9c0,0.4-0.1,0.7-0.4,0.9s-0.5,0.3-0.9,0.3h-21.8v17.2h19.1c0.3,0,0.6,0.1,0.9,0.4
		s0.4,0.5,0.4,0.9c0,0.4-0.1,0.7-0.4,0.9s-0.5,0.3-0.9,0.3h-19.1v18.5h21.8C452.7,423.9,453,424.1,453.3,424.3z"/>
	<path class="st6" d="M494.2,425.1c0,0.4-0.1,0.7-0.3,0.9s-0.5,0.3-0.8,0.3c-0.2,0-0.4,0-0.6-0.1c-1.1-0.6-2-1.7-2.6-3.1
		c-0.7-1.5-1-3.8-1-7.2c0-3.4-0.9-5.7-2.7-6.9c-1.8-1.3-3.9-1.9-6.3-1.9h-14.4v18c0,0.3-0.1,0.6-0.4,0.9s-0.6,0.4-0.9,0.4
		c-0.4,0-0.7-0.1-0.9-0.4c-0.3-0.2-0.4-0.5-0.4-0.9v-40.6c0-0.3,0.1-0.6,0.4-0.9c0.2-0.2,0.5-0.4,0.9-0.4h16.2
		c2.4,0,4.5,0.5,6.3,1.4c1.8,1,3.3,2.3,4.3,4c1,1.7,1.5,3.6,1.5,5.7c0,2.7-0.7,5.1-2.2,7.1c-1.5,2-3.3,3.3-5.7,4
		c2,0.6,3.6,1.8,4.9,3.7c1.3,1.8,1.9,4.1,1.9,6.7c0,2.7,0.2,4.7,0.5,5.8c0.3,1.1,0.9,1.9,1.6,2.3C494,424.3,494.2,424.6,494.2,425.1
		z M480.6,404.7c2.6-0.2,4.8-1.3,6.6-3.1c1.8-1.8,2.7-4.2,2.7-7.1c0-2.5-0.9-4.6-2.7-6.3c-1.8-1.6-4.2-2.5-7.2-2.5h-14.6v18.9
		L480.6,404.7L480.6,404.7z"/>
</g>
</svg>
