<?xml version="1.0" standalone="no"?>
<!DOCTYPE svg PUBLIC "-//W3C//DTD SVG 20010904//EN"
 "http://www.w3.org/TR/2001/REC-SVG-20010904/DTD/svg10.dtd">
<svg version="1.0" xmlns="http://www.w3.org/2000/svg"
 width="16.000000pt" height="16.000000pt" viewBox="0 0 16.000000 16.000000"
 preserveAspectRatio="xMidYMid meet">
<metadata>
Created by potrace 1.11, written by Peter Selinger 2001-2013
</metadata>
<g transform="translate(0.000000,16.000000) scale(0.002778,-0.002778)"
fill="#000000" stroke="none">
<path d="M765 5753 c-126 -26 -298 -118 -354 -189 -10 -13 -23 -24 -27 -24
-13 0 -74 -95 -107 -165 -67 -141 -62 61 -62 -2475 0 -1262 3 -2314 8 -2338
12 -68 54 -181 90 -241 17 -30 65 -87 104 -128 59 -59 91 -81 167 -118 52 -25
110 -48 128 -52 18 -3 38 -9 43 -13 12 -8 209 -6 244 3 144 37 283 113 365
201 78 84 147 223 166 337 7 42 11 422 13 1079 2 558 6 1029 10 1045 61 239
161 387 337 500 181 116 392 156 600 111 14 -3 36 -7 50 -10 42 -9 161 -67
191 -92 8 -8 21 -14 27 -14 11 0 157 -142 227 -221 156 -178 411 -225 630
-117 237 118 345 384 263 653 -11 35 -62 131 -77 145 -4 3 -21 25 -40 50 -91
119 -262 280 -381 360 -12 8 -32 22 -44 31 -11 9 -41 27 -66 40 -25 13 -47 27
-50 30 -7 8 -153 76 -215 101 -100 40 -210 73 -310 93 -144 29 -222 37 -359
38 -146 0 -231 -8 -361 -33 -27 -6 -59 -12 -70 -14 -11 -2 -40 -9 -65 -16 -25
-7 -46 -12 -47 -12 -3 1 -91 -31 -186 -68 -32 -12 -60 -20 -62 -18 -2 2 -5
230 -8 508 l-4 505 -26 73 c-26 74 -78 172 -106 202 -9 10 -30 33 -47 52 -68
77 -170 140 -289 178 -67 21 -242 35 -300 23z"/>
<path d="M4798 5755 c-2 -2 -16 -6 -32 -9 -145 -26 -296 -115 -399 -234 -51
-60 -125 -213 -133 -277 0 -5 -4 -26 -8 -45 -4 -19 -8 -494 -10 -1055 -1 -561
-6 -1033 -10 -1050 -45 -184 -112 -307 -225 -414 -169 -160 -413 -239 -644
-210 -66 9 -193 46 -216 63 -7 6 -19 11 -26 12 -7 1 -42 21 -77 45 -59 40
-105 84 -254 241 -124 131 -296 186 -484 154 -60 -10 -194 -77 -247 -122 -73
-62 -135 -162 -164 -264 -21 -74 -16 -235 9 -304 23 -63 71 -147 109 -193 148
-175 270 -291 393 -373 12 -8 32 -22 44 -31 11 -9 41 -27 66 -40 25 -13 47
-26 50 -29 10 -10 156 -79 220 -103 114 -44 109 -42 145 -51 11 -2 32 -9 48
-15 15 -6 27 -8 27 -5 0 2 8 0 18 -5 10 -5 38 -12 62 -16 25 -4 47 -8 50 -10
19 -12 274 -32 355 -29 90 4 206 13 240 19 113 20 169 32 195 40 10 3 27 7 37
9 28 6 174 56 203 71 14 7 37 15 53 19 l28 7 -1 -313 c0 -172 0 -317 1 -323 1
-5 0 -14 -1 -20 -5 -24 -1 -237 5 -296 12 -112 78 -279 134 -339 9 -9 30 -33
47 -52 185 -209 535 -267 784 -130 67 37 99 61 157 116 49 46 131 159 137 188
2 7 9 27 16 43 18 44 30 85 38 130 10 55 9 4589 -1 4643 -12 68 -54 181 -90
241 -17 30 -65 87 -104 128 -59 58 -91 81 -165 117 -51 24 -106 47 -123 51
-16 4 -37 9 -45 12 -16 7 -207 13 -212 8z"/>
</g>
</svg>
